<?xml version="1.0" encoding="utf-8"?>
<!-- Generator: Adobe Illustrator 27.2.0, SVG Export Plug-In . SVG Version: 6.00 Build 0)  -->
<svg version="1.1" id="Capa_1" xmlns="http://www.w3.org/2000/svg" xmlns:xlink="http://www.w3.org/1999/xlink" x="0px" y="0px"
	 viewBox="0 0 200 59" style="enable-background:new 0 0 200 59;" xml:space="preserve">
<style type="text/css">
	.st0{fill:#FF0310;}
	.st1{fill:#FFFFFF;}
	.st2{fill:#FF8A00;}
</style>
<g>
	<g>
		<g>
			<path class="st0" d="M51.9,11.3V2.1h1.9v7.7h4.7v1.6H51.9z"/>
			<path class="st0" d="M59.8,3.7V2h1.8v1.7H59.8z M59.8,11.3V4.6h1.8v6.8H59.8z"/>
			<path class="st0" d="M63.3,11.3V2h1.8v3.4c0.6-0.6,1.2-0.9,2-0.9c0.8,0,1.5,0.3,2,0.9c0.5,0.6,0.8,1.4,0.8,2.6
				c0,1.2-0.3,2-0.8,2.7c-0.5,0.6-1.2,0.9-2,0.9c-0.4,0-0.8-0.1-1.1-0.3c-0.4-0.2-0.7-0.5-1-0.9v1H63.3z M65.1,7.8
				c0,0.7,0.1,1.2,0.3,1.6c0.3,0.5,0.7,0.7,1.2,0.7c0.4,0,0.7-0.2,1-0.5c0.3-0.3,0.4-0.9,0.4-1.6c0-0.8-0.1-1.3-0.4-1.7
				C67.4,6,67,5.8,66.6,5.8c-0.4,0-0.8,0.2-1.1,0.5C65.2,6.6,65.1,7.1,65.1,7.8z"/>
			<path class="st0" d="M73.1,11.3h-1.8V4.6h1.7v1c0.3-0.5,0.5-0.8,0.8-0.9s0.5-0.2,0.8-0.2c0.4,0,0.8,0.1,1.2,0.3l-0.6,1.6
				C74.8,6.1,74.5,6,74.3,6c-0.2,0-0.5,0.1-0.6,0.2c-0.2,0.1-0.3,0.4-0.4,0.7s-0.1,1.1-0.1,2.3V11.3z"/>
			<path class="st0" d="M76,7.8c0-0.6,0.1-1.2,0.4-1.7c0.3-0.6,0.7-1,1.2-1.3c0.5-0.3,1.1-0.4,1.8-0.4c1,0,1.9,0.3,2.5,1
				c0.7,0.7,1,1.5,1,2.5c0,1-0.3,1.9-1,2.5c-0.7,0.7-1.5,1-2.5,1c-0.6,0-1.2-0.1-1.8-0.4c-0.6-0.3-1-0.7-1.3-1.2
				C76.1,9.3,76,8.6,76,7.8z M77.8,7.9c0,0.7,0.2,1.2,0.5,1.5C78.6,9.8,79,10,79.5,10c0.5,0,0.9-0.2,1.2-0.5
				c0.3-0.4,0.5-0.9,0.5-1.6c0-0.7-0.2-1.2-0.5-1.5S80,5.9,79.5,5.9c-0.5,0-0.9,0.2-1.2,0.5S77.8,7.3,77.8,7.9z"/>
			<path class="st0" d="M94.2,11.3h-1.7v-1c-0.3,0.4-0.6,0.7-1,0.9c-0.4,0.2-0.8,0.3-1.1,0.3c-0.8,0-1.4-0.3-2-0.9
				c-0.6-0.6-0.8-1.5-0.8-2.6c0-1.1,0.3-2,0.8-2.6c0.5-0.6,1.2-0.9,2-0.9c0.8,0,1.4,0.3,2,0.9V2h1.8V11.3z M89.4,7.8
				c0,0.7,0.1,1.2,0.3,1.6c0.3,0.5,0.7,0.7,1.2,0.7c0.4,0,0.8-0.2,1-0.5c0.3-0.4,0.4-0.9,0.4-1.6c0-0.8-0.1-1.3-0.4-1.7
				c-0.3-0.3-0.6-0.5-1.1-0.5c-0.4,0-0.8,0.2-1.1,0.5C89.5,6.6,89.4,7.1,89.4,7.8z"/>
			<path class="st0" d="M99.8,9.2l1.8,0.3c-0.2,0.7-0.6,1.1-1.1,1.5c-0.5,0.3-1.1,0.5-1.9,0.5c-1.2,0-2-0.4-2.6-1.2
				c-0.4-0.6-0.7-1.4-0.7-2.3c0-1.1,0.3-2,0.9-2.6c0.6-0.6,1.3-1,2.2-1c1,0,1.8,0.3,2.4,1c0.6,0.7,0.9,1.7,0.8,3h-4.5
				c0,0.5,0.2,0.9,0.4,1.2c0.3,0.3,0.6,0.4,1,0.4c0.3,0,0.5-0.1,0.7-0.2C99.6,9.8,99.7,9.5,99.8,9.2z M99.9,7.4
				c0-0.5-0.1-0.9-0.4-1.2c-0.3-0.3-0.6-0.4-0.9-0.4c-0.4,0-0.7,0.1-1,0.4s-0.4,0.7-0.4,1.2H99.9z"/>
			<path class="st0" d="M106.8,11.3V2h1.8v9.3H106.8z"/>
			<path class="st0" d="M114.3,9.2l1.8,0.3c-0.2,0.7-0.6,1.1-1.1,1.5c-0.5,0.3-1.1,0.5-1.9,0.5c-1.2,0-2-0.4-2.6-1.2
				c-0.4-0.6-0.7-1.4-0.7-2.3c0-1.1,0.3-2,0.9-2.6c0.6-0.6,1.3-1,2.2-1c1,0,1.8,0.3,2.4,1c0.6,0.7,0.9,1.7,0.8,3h-4.5
				c0,0.5,0.2,0.9,0.4,1.2c0.3,0.3,0.6,0.4,1,0.4c0.3,0,0.5-0.1,0.7-0.2C114.1,9.8,114.2,9.5,114.3,9.2z M114.4,7.4
				c0-0.5-0.1-0.9-0.4-1.2c-0.3-0.3-0.6-0.4-0.9-0.4c-0.4,0-0.7,0.1-1,0.4s-0.4,0.7-0.4,1.2H114.4z"/>
			<path class="st0" d="M123.5,6.6l-1.8,0.3c-0.1-0.4-0.2-0.6-0.4-0.8c-0.2-0.2-0.5-0.3-0.8-0.3c-0.4,0-0.8,0.2-1.1,0.5
				c-0.3,0.3-0.4,0.8-0.4,1.5c0,0.8,0.1,1.4,0.4,1.7c0.3,0.3,0.6,0.5,1.1,0.5c0.3,0,0.6-0.1,0.8-0.3c0.2-0.2,0.4-0.5,0.5-1l1.8,0.3
				c-0.2,0.8-0.5,1.4-1,1.8c-0.5,0.4-1.2,0.6-2.1,0.6c-1,0-1.8-0.3-2.4-0.9c-0.6-0.6-0.9-1.5-0.9-2.6c0-1.1,0.3-2,0.9-2.6
				c0.6-0.6,1.4-0.9,2.4-0.9c0.8,0,1.5,0.2,2,0.5C123,5.3,123.3,5.8,123.5,6.6z"/>
			<path class="st0" d="M128,4.6V6h-1.2v2.7c0,0.6,0,0.9,0,1c0,0.1,0.1,0.2,0.2,0.2c0.1,0.1,0.2,0.1,0.3,0.1c0.2,0,0.4-0.1,0.7-0.2
				l0.2,1.4c-0.4,0.2-0.9,0.3-1.4,0.3c-0.3,0-0.6-0.1-0.9-0.2c-0.3-0.1-0.4-0.2-0.6-0.4c-0.1-0.2-0.2-0.4-0.3-0.7
				c0-0.2-0.1-0.6-0.1-1.3V6h-0.8V4.6h0.8V3.2l1.8-1v2.4H128z"/>
			<path class="st0" d="M133.7,11.3v-1c-0.2,0.4-0.6,0.6-1,0.9c-0.4,0.2-0.8,0.3-1.3,0.3c-0.5,0-0.9-0.1-1.2-0.3
				c-0.4-0.2-0.6-0.5-0.8-0.8c-0.2-0.4-0.2-0.9-0.2-1.5V4.6h1.8v3.1c0,0.9,0,1.5,0.1,1.7c0.1,0.2,0.2,0.4,0.4,0.5s0.4,0.2,0.7,0.2
				c0.3,0,0.6-0.1,0.8-0.3c0.2-0.2,0.4-0.4,0.5-0.6c0.1-0.2,0.1-0.9,0.1-1.8V4.6h1.8v6.8H133.7z"/>
			<path class="st0" d="M138.9,11.3h-1.8V4.6h1.7v1c0.3-0.5,0.5-0.8,0.8-0.9s0.5-0.2,0.8-0.2c0.4,0,0.8,0.1,1.2,0.3l-0.6,1.6
				c-0.3-0.2-0.6-0.3-0.8-0.3c-0.2,0-0.5,0.1-0.6,0.2c-0.2,0.1-0.3,0.4-0.4,0.7s-0.1,1.1-0.1,2.3V11.3z"/>
			<path class="st0" d="M143.6,6.6L142,6.3c0.2-0.7,0.5-1.1,0.9-1.4c0.4-0.3,1.1-0.5,2-0.5c0.8,0,1.4,0.1,1.8,0.3
				c0.4,0.2,0.7,0.4,0.8,0.7c0.2,0.3,0.2,0.8,0.2,1.6l0,2.1c0,0.6,0,1,0.1,1.3c0.1,0.3,0.2,0.6,0.3,0.9h-1.8c0-0.1-0.1-0.3-0.2-0.5
				c0-0.1-0.1-0.2-0.1-0.2c-0.3,0.3-0.6,0.5-1,0.7c-0.3,0.1-0.7,0.2-1.1,0.2c-0.7,0-1.2-0.2-1.6-0.6c-0.4-0.4-0.6-0.9-0.6-1.4
				c0-0.4,0.1-0.7,0.3-1c0.2-0.3,0.4-0.5,0.8-0.7c0.3-0.2,0.8-0.3,1.4-0.4c0.8-0.2,1.4-0.3,1.7-0.4V6.7c0-0.3-0.1-0.6-0.3-0.7
				c-0.2-0.1-0.5-0.2-1-0.2c-0.3,0-0.6,0.1-0.7,0.2S143.7,6.3,143.6,6.6z M146,8.1c-0.2,0.1-0.6,0.2-1.1,0.3c-0.5,0.1-0.8,0.2-1,0.3
				c-0.2,0.2-0.4,0.4-0.4,0.6c0,0.2,0.1,0.5,0.3,0.6c0.2,0.2,0.4,0.3,0.7,0.3c0.3,0,0.6-0.1,0.9-0.3c0.2-0.2,0.4-0.4,0.4-0.6
				c0-0.2,0.1-0.4,0.1-0.9V8.1z"/>
		</g>
		<g>
			<g>
				<path class="st1" d="M197.4,24.5v5c0,0.6-0.4,1.1-1.1,1.4c-0.3,0.1-0.7,0.2-1.1,0.2c-0.2,0-0.5,0-0.7-0.1c0,0,0,6,0,6
					c0,0.9-1,1.6-2.2,1.6h-6.1c-1.2,0-2.2-0.7-2.2-1.6v-1.8c-0.4,0.4-0.9,0.9-1.4,1.3c-2.1,1.6-4.7,2.4-7.6,2.4
					c-3,0-5.5-0.8-7.6-2.4c-0.9-0.7-1.6-1.4-2.1-2.2c-0.4,0.6-0.8,1.2-1.4,1.7c-1,0.9-2.2,1.6-3.6,2.1c-1.5,0.5-3,0.8-4.5,0.8
					c-3,0-5.6-0.8-7.7-2.3c-0.6-0.4-1.1-0.9-1.5-1.4V37c0,0.9-1,1.6-2.2,1.6h-6.2c-0.2,0.1-0.4,0.1-0.6,0.1
					c-0.6,0.1-1.2,0.1-1.7,0.1c-3,0-5.6-0.8-7.7-2.3c-1.2-0.9-2-1.9-2.5-3c0,1.6,0,3.4,0,3.4c0,0.9-1,1.6-2.2,1.6h-6.1
					c-1.2,0-2.2-0.7-2.2-1.6v-1.9c-0.4,0.5-0.9,1-1.5,1.4c-2.1,1.5-4.7,2.3-7.7,2.3c-1.5,0-3-0.3-4.5-0.8c-1.5-0.5-2.7-1.2-3.6-2.1
					c-0.6-0.5-1-1.1-1.4-1.7V37c0,0.9-1,1.6-2.2,1.6h-6.1c-0.4,0-0.7-0.1-1-0.2c-0.3,0.1-0.6,0.2-1,0.2h-6.1c-0.4,0-0.7-0.1-1-0.2
					c-0.3,0.1-0.6,0.2-1,0.2h-6.1c-1.2,0-2.2-0.7-2.2-1.6v-3.8c-0.1,0-0.3,0-0.4,0h-3l1.7,1.6c0.4,0.3,0.6,0.8,0.5,1.2
					c-0.1,0.4-0.4,0.8-0.8,1.1c-2,1.2-4.3,1.8-6.8,1.8c-3,0-5.6-0.8-7.6-2.3c-0.9-0.6-1.5-1.3-2.1-2.1c-0.5,0.9-1.2,1.7-2.2,2.4
					c-2,1.4-4.4,2.2-7.2,2.2c-1.4,0-2.8-0.2-4.1-0.7c-0.8-0.3-1.2-0.8-1.2-1.5v-4.9c0-0.6,0.4-1.1,1.1-1.4c0.3-0.1,0.7-0.2,1-0.2
					c0.4,0,0.8,0.1,1.1,0.2c-0.1-0.1-0.1-0.2-0.2-0.3c-1.2-1.6-1.8-3.2-1.8-4.8c0-2,1-3.8,2.9-5.3c1.9-1.5,4.3-2.2,6.9-2.2
					c1.2,0,2.3,0.1,3.4,0.4c0.9,0.2,1.5,0.8,1.5,1.5v4.8c0,0.5-0.3,1-0.9,1.3c-0.4,0.2-0.8,0.3-1.3,0.3c-0.2,0-0.4,0-0.6-0.1
					c0,0.1,0.1,0.1,0.1,0.2l0.5,0.7c0.2,0.2,0.4,0.5,0.5,0.7c0.5-1.1,1.4-2,2.5-2.9c2.1-1.6,4.7-2.3,7.7-2.3c3,0,5.5,0.8,7.5,2.3
					c0.8,0.6,1.4,1.2,1.8,1.8c0.4-0.8,1-1.5,1.8-2.2c1.7-1.3,3.7-2,6.1-2c1.8,0,3.5,0.4,4.9,1.2c1.6-0.8,3.2-1.2,4.8-1.2
					c2.7,0,5,0.8,6.6,2.3c0.3,0.3,0.6,0.6,0.9,1v-6c0-0.9,1-1.6,2.2-1.6h6.2c1.2,0,2.2,0.7,2.2,1.6v2.7c0.2,0,0.3,0,0.4,0
					c2.9,0,5.4,0.8,7.5,2.4c0.9,0.7,1.6,1.4,2.1,2.2c0.4-0.9,1.1-1.8,1.9-2.5c1.7-1.4,4-2.1,6.8-2.1c0.6,0,1.3,0,2.2,0.2
					c1.1,0.1,1.8,0.8,1.8,1.6v0.4c2-1.4,4.5-2.1,7.3-2.1c3.2,0,5.9,0.8,7.8,2.2c1,0.7,1.7,1.6,2.2,2.6c0.5-0.9,1.3-1.7,2.2-2.4
					c2.1-1.6,4.6-2.4,7.5-2.4c0.1,0,0.3,0,0.4,0v-2.7c0-0.9,1-1.6,2.2-1.6h6.1c1.2,0,2.2,0.7,2.2,1.6V26c0.3-0.3,0.7-0.6,1.1-0.9
					c2.1-1.5,4.7-2.3,7.8-2.3c2.9,0,5.4,0.8,7.5,2.4c0.8,0.6,1.5,1.3,2,2.1c0.4-0.9,1-1.7,1.9-2.3c1.7-1.4,4-2.1,6.8-2.1
					c0.6,0,1.3,0,2.2,0.2C196.6,23,197.4,23.7,197.4,24.5z"/>
				<path class="st1" d="M29.3,20.1V37c0,0.9-1,1.6-2.2,1.6H21c-0.7,0-1.3-0.2-1.7-0.6c-0.4,0.4-1,0.6-1.7,0.6h-5.2
					c-3,0-5.4-0.6-7.1-1.8c-1.8-1.2-2.7-2.9-2.7-5.1v-6.6c0-2.1,0.8-3.7,2.5-4.9c1.6-1.2,3.9-1.8,6.7-1.8h5.8c0.7,0,1.3,0.2,1.7,0.6
					c0.4-0.4,1-0.6,1.7-0.6h6.1C28.3,18.4,29.3,19.2,29.3,20.1z"/>
			</g>
			<g>
				<g>
					<path class="st2" d="M87.9,24.4c-1.6,0-3.2,0.6-4.8,1.7c-1.4-1.2-3.1-1.7-4.9-1.7c-1.8,0-3.3,0.5-4.5,1.5
						c-1.2,1-1.9,2.2-1.9,3.5V37h6.1v-6.7c0-0.9,0.3-1.4,1-1.4c0.4,0,0.6,0.1,0.8,0.3c0.1,0.2,0.2,0.6,0.2,1.1V37h6.1v-6.7
						c0-0.9,0.3-1.4,1-1.4c0.4,0,0.6,0.1,0.8,0.3c0.1,0.2,0.2,0.6,0.2,1.1V37h6.2v-7.1c0-1.7-0.5-3-1.5-3.8
						C91.6,24.9,89.9,24.4,87.9,24.4z M66.9,26.2c-1.6-1.2-3.6-1.8-6-1.8c-2.4,0-4.5,0.6-6.2,1.9c-1.7,1.2-2.5,2.8-2.5,4.6
						c0,1.8,0.8,3.3,2.5,4.6c1.7,1.2,3.7,1.8,6.1,1.8c2,0,3.8-0.5,5.4-1.5l-3.5-3.2c-0.6,0.5-1.2,0.7-1.8,0.7
						c-0.8,0-1.4-0.2-1.8-0.7c-0.5-0.5-0.7-1.1-0.7-1.9c0-0.8,0.2-1.4,0.7-1.9c0.5-0.5,1.1-0.7,1.9-0.7c1.2,0,1.8,0.5,2.1,1.4H60
						c-0.2,0.4-0.3,0.8-0.3,1.2c0,0.3,0.1,0.6,0.2,1h9.3c0-0.4,0.1-0.7,0.1-0.9C69.3,28.9,68.5,27.4,66.9,26.2z M112.2,26.3
						c-1.6-1.3-3.6-1.9-5.9-1.9c-0.4,0-0.9,0-1.6,0.1v5.1c0.6-0.3,1.1-0.4,1.5-0.4c0.6,0,1.2,0.2,1.6,0.5c0.4,0.3,0.7,0.8,0.7,1.3
						c0,0.5-0.2,0.9-0.7,1.2c-0.5,0.3-1,0.5-1.7,0.5c-1.6,0-2.4-0.8-2.4-2.5V20.1h-6.2v10.3c0,1.9,0.7,3.4,2,4.6
						c0.8,0.7,1.7,1.2,2.9,1.6c1.2,0.4,2.4,0.6,3.6,0.6c2.4,0,4.5-0.6,6.2-1.9c1.7-1.2,2.5-2.8,2.5-4.6
						C114.6,29,113.8,27.5,112.2,26.3z M6.6,21.4c-1.2,0.9-1.8,2.2-1.8,3.8v6.6c0,1.7,0.7,3,2,3.9C8,36.5,9.9,37,12.4,37h5.2v-4.8
						h-4.5c-0.8,0-1.3-0.1-1.5-0.2c-0.3-0.1-0.4-0.3-0.4-0.7c0-0.3,0.1-0.5,0.4-0.7c0.2-0.1,0.7-0.2,1.3-0.2h4.4v-3.8h-3.7
						c-0.7,0-1.2-0.1-1.5-0.2c-0.3-0.1-0.4-0.4-0.4-0.7c0-0.6,0.6-0.8,1.7-0.8h4.3v-4.9h-5.8C9.6,20.1,7.9,20.5,6.6,21.4z
						 M42.1,21.4c-1.5,1.2-2.3,2.5-2.3,4.1c0,1.3,0.5,2.6,1.5,4c0.6,0.8,0.9,1.4,0.9,1.6c0,0.4-0.2,0.7-0.6,0.9
						c-0.4,0.3-0.9,0.4-1.5,0.4c-0.5,0-1.1-0.2-1.7-0.5v4.9c1.1,0.4,2.1,0.6,3.2,0.6c2.2,0,4.1-0.6,5.7-1.7c1.6-1.1,2.3-2.5,2.3-4.2
						c0-1.1-0.5-2.3-1.4-3.5l-0.5-0.7c-0.4-0.5-0.6-1-0.6-1.3c0-0.4,0.2-0.7,0.5-1c0.4-0.3,0.8-0.4,1.3-0.4c0.3,0,0.6,0.1,1.1,0.2
						V20c-0.9-0.2-1.8-0.3-2.7-0.3C45.4,19.6,43.6,20.2,42.1,21.4z M21,37h6.1V20.1H21V37z M181.2,26.2c-1.7-1.3-3.7-1.9-6-1.9
						c-2.5,0-4.6,0.6-6.2,1.9c-1.7,1.2-2.5,2.8-2.5,4.6c0,1.8,0.8,3.3,2.5,4.6c1.7,1.3,3.7,1.9,6.1,1.9c2.4,0,4.4-0.6,6.1-1.9
						c1.7-1.3,2.5-2.8,2.5-4.6C183.7,29,182.8,27.5,181.2,26.2z M176.7,32.1c-0.5,0.4-1,0.5-1.7,0.5c-0.6,0-1.2-0.2-1.7-0.5
						c-0.5-0.4-0.7-0.8-0.7-1.3c0-0.5,0.2-1,0.7-1.3c0.5-0.4,1-0.5,1.7-0.5c0.7,0,1.2,0.2,1.7,0.5c0.5,0.4,0.7,0.8,0.7,1.3
						C177.4,31.3,177.2,31.7,176.7,32.1z M193.4,24.4c-2.2,0-3.9,0.5-5.2,1.6c-1.3,1.1-1.9,2.5-1.9,4.3V37h6.1v-5.9
						c0-1.3,0.6-1.9,1.7-1.9c0.3,0,0.7,0.1,1.2,0.3v-5C194.5,24.4,193.8,24.4,193.4,24.4z M142.1,26.1c-1.5-1.2-3.6-1.8-6.3-1.8
						c-2.4,0-4.4,0.6-6.1,1.9c-1.7,1.2-2.5,2.8-2.5,4.6c0,1.8,0.8,3.4,2.5,4.6c1.6,1.2,3.7,1.8,6.2,1.8c0.4,0,0.9,0,1.4-0.1v-4.8
						c-0.5,0.2-1,0.3-1.5,0.3c-0.7,0-1.2-0.2-1.6-0.5c-0.4-0.3-0.6-0.8-0.6-1.3c0-0.5,0.2-0.9,0.7-1.3c0.5-0.4,1-0.5,1.7-0.5
						c0.7,0,1.3,0.2,1.7,0.6c0.4,0.4,0.6,0.9,0.6,1.6V37h6.1v-6.1C144.4,28.9,143.6,27.3,142.1,26.1z M119.3,25.9
						c-1.3,1.1-1.9,2.5-1.9,4.3V37h6.1v-5.9c0-1.3,0.6-1.9,1.7-1.9c0.3,0,0.7,0.1,1.2,0.3v-5c-0.8-0.1-1.4-0.1-1.9-0.1
						C122.3,24.4,120.6,24.9,119.3,25.9z M158,30.2c0,1.6-0.8,2.5-2.4,2.5c-0.7,0-1.2-0.2-1.7-0.5c-0.5-0.3-0.7-0.8-0.7-1.2
						c0-0.5,0.2-0.9,0.7-1.3c0.5-0.4,1-0.5,1.6-0.5c0.5,0,1,0.1,1.5,0.4v-5.1c-0.7,0-1.3-0.1-1.6-0.1c-2.3,0-4.3,0.6-5.9,1.9
						s-2.5,2.8-2.5,4.5c0,1.8,0.8,3.3,2.5,4.6c1.7,1.2,3.7,1.9,6.2,1.9c1.2,0,2.4-0.2,3.6-0.6c1.2-0.4,2.1-1,2.9-1.6
						c1.3-1.2,2-2.7,2-4.6V20.1H158V30.2z"/>
				</g>
			</g>
		</g>
		<g>
			<path class="st0" d="M66.1,49.7V53h-3.8c-0.5,0-0.9,0.1-1.1,0.2c-0.2,0.1-0.3,0.3-0.3,0.6c0,0.3,0.1,0.5,0.3,0.6
				c0.2,0.1,0.7,0.1,1.3,0.1h3.9v4.2h-4.5c-2.1,0-3.7-0.4-4.9-1.2c-1.1-0.8-1.7-1.9-1.7-3.3v-5.8c0-1.4,0.5-2.5,1.6-3.3
				c1.1-0.8,2.6-1.2,4.5-1.2h5v4.2h-3.7c-1,0-1.5,0.2-1.5,0.7c0,0.3,0.1,0.5,0.4,0.6c0.2,0.1,0.7,0.2,1.3,0.2H66.1z"/>
			<path class="st0" d="M78,48.1v4.2c-0.7,0-1.3,0.1-1.5,0.3c-0.3,0.2-0.5,0.6-0.5,1.3c-0.2,2.1-1.3,3.5-3.2,4.4
				c-1,0.4-2.4,0.7-4.2,0.7h-0.7v-4.3h0.2c0.8,0,1.5-0.1,1.8-0.4c0.4-0.3,0.6-0.7,0.6-1.4c0.1-1.1,0.2-1.9,0.4-2.3
				c0.2-0.4,0.6-0.9,1.2-1.3c1-0.8,2.5-1.2,4.3-1.2H78z"/>
			<path class="st0" d="M88.3,53.8l5.3-0.2c-0.2,1.6-0.9,2.8-2.3,3.8c-1.4,1-3,1.5-5,1.5c-2.1,0-3.8-0.6-5.3-1.6
				c-1.4-1.1-2.1-2.4-2.1-4c0-1.5,0.7-2.8,2.2-3.9c1.4-1.1,3.2-1.6,5.2-1.6c1.8,0,3.3,0.4,4.7,1.3c1.3,0.8,2.2,1.9,2.5,3.2L88,52.4
				c-0.5-0.5-1-0.7-1.8-0.7c-0.6,0-1.1,0.2-1.5,0.5c-0.4,0.3-0.6,0.7-0.6,1.1c0,0.5,0.2,0.9,0.6,1.2c0.4,0.3,0.9,0.5,1.5,0.5
				C87.3,55,87.9,54.6,88.3,53.8z"/>
			<path class="st0" d="M102.4,47.7c2,0,3.7,0.5,5.1,1.6c1.4,1.1,2.1,2.4,2.1,3.9c0,1.6-0.7,2.9-2.2,4c-1.4,1.1-3.2,1.6-5.2,1.6
				c-2,0-3.8-0.5-5.3-1.6c-1.5-1.1-2.2-2.4-2.2-4c0-1.6,0.7-2.9,2.2-4C98.5,48.3,100.3,47.7,102.4,47.7z M102.3,51.7
				c-0.6,0-1,0.2-1.4,0.5c-0.4,0.3-0.6,0.7-0.6,1.1c0,0.4,0.2,0.8,0.6,1.1c0.4,0.3,0.9,0.5,1.4,0.5c0.6,0,1-0.2,1.5-0.5
				c0.4-0.3,0.6-0.7,0.6-1.1c0-0.5-0.2-0.8-0.6-1.1C103.3,51.9,102.8,51.7,102.3,51.7z"/>
			<path class="st0" d="M117,44v14.7h-5.3V44H117z"/>
			<path class="st0" d="M127.8,54.7v4.2c-0.4,0.1-0.8,0.1-1.2,0.1c-2.1,0-3.9-0.5-5.3-1.6c-1.4-1.1-2.1-2.4-2.1-4
				c0-1.6,0.7-2.9,2.1-4c1.4-1.1,3.2-1.6,5.2-1.6c2.3,0,4.1,0.5,5.4,1.5c1.3,1,2,2.4,2,4.2v5.3h-5.3v-5c0-0.6-0.2-1-0.5-1.4
				c-0.4-0.3-0.9-0.5-1.5-0.5c-0.6,0-1,0.2-1.4,0.5c-0.4,0.3-0.6,0.7-0.6,1.1c0,0.4,0.2,0.8,0.6,1.1c0.4,0.3,0.8,0.4,1.4,0.4
				C127,55,127.4,54.9,127.8,54.7z"/>
			<path class="st0" d="M144.6,47.9v4.3c-0.4-0.2-0.7-0.2-1-0.2c-1,0-1.4,0.6-1.4,1.7v5.1h-5.3v-5.9c0-1.6,0.6-2.8,1.7-3.7
				c1.1-0.9,2.6-1.4,4.5-1.4C143.4,47.7,144,47.8,144.6,47.9z"/>
		</g>
	</g>
</g>
</svg>
