<?xml version="1.0" encoding="utf-8"?>
<!-- Generator: Adobe Illustrator 27.2.0, SVG Export Plug-In . SVG Version: 6.00 Build 0)  -->
<svg version="1.1" id="Capa_1" xmlns="http://www.w3.org/2000/svg" xmlns:xlink="http://www.w3.org/1999/xlink" x="0px" y="0px"
	 viewBox="0 0 801 239" style="enable-background:new 0 0 801 239;" xml:space="preserve">
<style type="text/css">
	.st0{fill:#FF0310;}
	.st1{fill:#FFFFFF;}
	.st2{fill:#FF8A00;}
</style>
<g>
	<g>
		<g>
			<path class="st0" d="M18.8,58.9V23.1h7.3v29.7h18.1v6.1H18.8z"/>
			<path class="st0" d="M49.4,29.2v-6.4h6.9v6.4H49.4z M49.4,58.9V32.8h6.9v26.2H49.4z"/>
			<path class="st0" d="M63.1,58.9V22.8h6.9v13c2.1-2.4,4.7-3.6,7.6-3.6c3.2,0,5.8,1.2,7.9,3.5c2.1,2.3,3.1,5.6,3.1,9.9
				c0,4.5-1.1,7.9-3.2,10.3c-2.1,2.4-4.7,3.6-7.7,3.6c-1.5,0-3-0.4-4.4-1.1c-1.5-0.7-2.7-1.9-3.8-3.3v3.8H63.1z M70,45.3
				c0,2.7,0.4,4.7,1.3,6c1.2,1.8,2.8,2.8,4.8,2.8c1.5,0,2.8-0.6,3.9-2c1.1-1.3,1.6-3.4,1.6-6.2c0-3-0.5-5.1-1.6-6.5
				c-1.1-1.3-2.5-2-4.2-2c-1.7,0-3,0.6-4.1,1.9C70.6,40.7,70,42.7,70,45.3z"/>
			<path class="st0" d="M100.9,58.9h-6.9V32.8h6.4v3.7c1.1-1.8,2.1-2.9,3-3.5c0.9-0.6,1.9-0.8,3-0.8c1.6,0,3.1,0.4,4.6,1.3l-2.1,6
				c-1.2-0.8-2.2-1.1-3.2-1.1c-1,0-1.8,0.3-2.5,0.8c-0.7,0.5-1.2,1.5-1.6,2.9s-0.6,4.3-0.6,8.8V58.9z"/>
			<path class="st0" d="M112.3,45.5c0-2.3,0.6-4.5,1.7-6.7c1.1-2.1,2.7-3.8,4.8-4.9c2.1-1.1,4.4-1.7,7-1.7c4,0,7.2,1.3,9.7,3.9
				c2.5,2.6,3.8,5.8,3.8,9.7c0,4-1.3,7.2-3.8,9.8c-2.6,2.6-5.8,3.9-9.6,3.9c-2.4,0-4.7-0.5-6.9-1.6s-3.8-2.7-5-4.8
				C112.8,51.1,112.3,48.5,112.3,45.5z M119.4,45.9c0,2.6,0.6,4.6,1.8,6c1.2,1.4,2.7,2.1,4.6,2.1c1.8,0,3.3-0.7,4.5-2.1
				c1.2-1.4,1.8-3.4,1.8-6c0-2.6-0.6-4.5-1.8-5.9c-1.2-1.4-2.7-2.1-4.5-2.1c-1.8,0-3.3,0.7-4.6,2.1C120,41.3,119.4,43.3,119.4,45.9z
				"/>
			<path class="st0" d="M182.7,58.9h-6.4v-3.8c-1.1,1.5-2.3,2.6-3.8,3.3c-1.5,0.7-2.9,1.1-4.4,1.1c-3,0-5.6-1.2-7.7-3.6
				c-2.1-2.4-3.2-5.8-3.2-10.1c0-4.4,1-7.8,3.1-10.1c2.1-2.3,4.7-3.5,7.9-3.5c2.9,0,5.5,1.2,7.6,3.6v-13h6.9V58.9z M164.2,45.3
				c0,2.8,0.4,4.8,1.2,6.1c1.1,1.8,2.7,2.7,4.7,2.7c1.6,0,2.9-0.7,4.1-2c1.1-1.4,1.7-3.4,1.7-6.1c0-3-0.5-5.2-1.6-6.5
				c-1.1-1.3-2.5-2-4.2-2c-1.6,0-3,0.7-4.1,2C164.8,40.8,164.2,42.7,164.2,45.3z"/>
			<path class="st0" d="M204.6,50.6l6.9,1.2c-0.9,2.5-2.3,4.5-4.2,5.8c-1.9,1.3-4.3,2-7.2,2c-4.5,0-7.9-1.5-10.1-4.5
				c-1.7-2.4-2.6-5.4-2.6-9c0-4.3,1.1-7.7,3.4-10.2c2.3-2.5,5.1-3.7,8.6-3.7c3.9,0,7,1.3,9.2,3.9c2.3,2.6,3.3,6.5,3.2,11.8h-17.3
				c0,2.1,0.6,3.6,1.7,4.8c1.1,1.1,2.4,1.7,4,1.7c1.1,0,2-0.3,2.7-0.9C203.7,52.9,204.3,51.9,204.6,50.6z M205,43.6
				c0-2-0.6-3.5-1.6-4.6c-1-1-2.2-1.6-3.6-1.6c-1.5,0-2.8,0.6-3.7,1.7c-1,1.1-1.5,2.6-1.5,4.5H205z"/>
			<path class="st0" d="M231.6,58.9V22.8h6.9v36.1H231.6z"/>
			<path class="st0" d="M260.7,50.6l6.9,1.2c-0.9,2.5-2.3,4.5-4.2,5.8c-1.9,1.3-4.3,2-7.2,2c-4.5,0-7.9-1.5-10.1-4.5
				c-1.7-2.4-2.6-5.4-2.6-9c0-4.3,1.1-7.7,3.4-10.2c2.3-2.5,5.1-3.7,8.6-3.7c3.9,0,7,1.3,9.2,3.9c2.3,2.6,3.3,6.5,3.2,11.8h-17.3
				c0,2.1,0.6,3.6,1.7,4.8c1.1,1.1,2.4,1.7,4,1.7c1.1,0,2-0.3,2.7-0.9C259.8,52.9,260.3,51.9,260.7,50.6z M261.1,43.6
				c0-2-0.6-3.5-1.6-4.6c-1-1-2.2-1.6-3.6-1.6c-1.5,0-2.8,0.6-3.7,1.7c-1,1.1-1.5,2.6-1.5,4.5H261.1z"/>
			<path class="st0" d="M296.4,40.5l-6.8,1.2c-0.2-1.4-0.8-2.4-1.6-3.1c-0.8-0.7-1.9-1-3.2-1c-1.7,0-3.1,0.6-4.1,1.8
				c-1,1.2-1.5,3.2-1.5,6c0,3.1,0.5,5.3,1.6,6.6c1,1.3,2.4,1.9,4.2,1.9c1.3,0,2.4-0.4,3.2-1.1c0.8-0.7,1.4-2,1.8-3.9l6.8,1.2
				c-0.7,3.1-2.1,5.5-4.1,7.1c-2,1.6-4.7,2.4-8.1,2.4c-3.8,0-6.9-1.2-9.1-3.6c-2.3-2.4-3.4-5.8-3.4-10c0-4.3,1.1-7.7,3.4-10.1
				c2.3-2.4,5.4-3.6,9.3-3.6c3.2,0,5.7,0.7,7.6,2.1C294.3,35.6,295.6,37.7,296.4,40.5z"/>
			<path class="st0" d="M313.7,32.8v5.5H309v10.5c0,2.1,0,3.4,0.1,3.7c0.1,0.4,0.3,0.6,0.6,0.9c0.3,0.2,0.7,0.3,1.2,0.3
				c0.6,0,1.6-0.2,2.8-0.7l0.6,5.4c-1.6,0.7-3.4,1-5.5,1c-1.3,0-2.4-0.2-3.4-0.6c-1-0.4-1.7-1-2.2-1.6c-0.5-0.7-0.8-1.6-1-2.7
				c-0.1-0.8-0.2-2.4-0.2-4.9V38.3h-3.2v-5.5h3.2v-5.2l6.9-4v9.2H313.7z"/>
			<path class="st0" d="M335.7,58.9V55c-1,1.4-2.2,2.5-3.8,3.3c-1.6,0.8-3.2,1.2-4.9,1.2c-1.8,0-3.3-0.4-4.7-1.2
				c-1.4-0.8-2.4-1.9-3-3.2c-0.6-1.4-0.9-3.3-0.9-5.8V32.8h6.9v12c0,3.7,0.1,5.9,0.4,6.8s0.7,1.5,1.4,2c0.7,0.5,1.5,0.7,2.6,0.7
				c1.2,0,2.2-0.3,3.2-1c0.9-0.6,1.6-1.5,1.9-2.4c0.3-1,0.5-3.3,0.5-7.1v-11h6.9v26.2H335.7z"/>
			<path class="st0" d="M355.9,58.9H349V32.8h6.4v3.7c1.1-1.8,2.1-2.9,3-3.5c0.9-0.6,1.9-0.8,3-0.8c1.6,0,3.1,0.4,4.6,1.3l-2.1,6
				c-1.2-0.8-2.2-1.1-3.2-1.1c-1,0-1.8,0.3-2.5,0.8c-0.7,0.5-1.2,1.5-1.6,2.9s-0.6,4.3-0.6,8.8V58.9z"/>
			<path class="st0" d="M374.1,40.8l-6.3-1.1c0.7-2.5,1.9-4.4,3.6-5.6c1.7-1.2,4.3-1.8,7.7-1.8c3.1,0,5.4,0.4,6.9,1.1
				c1.5,0.7,2.6,1.7,3.2,2.8c0.6,1.1,0.9,3.2,0.9,6.2l-0.1,8.1c0,2.3,0.1,4,0.3,5.1c0.2,1.1,0.6,2.3,1.2,3.5h-6.8
				c-0.2-0.5-0.4-1.1-0.7-2c-0.1-0.4-0.2-0.7-0.2-0.8c-1.2,1.2-2.4,2-3.8,2.6c-1.3,0.6-2.8,0.9-4.3,0.9c-2.7,0-4.8-0.7-6.4-2.2
				c-1.6-1.5-2.3-3.3-2.3-5.5c0-1.5,0.4-2.8,1.1-4c0.7-1.2,1.7-2,3-2.7c1.3-0.6,3.1-1.2,5.5-1.6c3.2-0.6,5.5-1.2,6.7-1.7v-0.7
				c0-1.3-0.3-2.3-1-2.8c-0.7-0.6-1.9-0.8-3.7-0.8c-1.2,0-2.2,0.2-2.9,0.7C375.1,38.7,374.5,39.6,374.1,40.8z M383.4,46.4
				c-0.9,0.3-2.3,0.6-4.2,1.1c-1.9,0.4-3.2,0.8-3.8,1.2c-0.9,0.6-1.4,1.5-1.4,2.4c0,1,0.4,1.8,1.1,2.5c0.7,0.7,1.6,1.1,2.8,1.1
				c1.2,0,2.4-0.4,3.6-1.2c0.8-0.6,1.4-1.4,1.6-2.3c0.2-0.6,0.3-1.7,0.3-3.4V46.4z"/>
		</g>
		<g>
			<g>
				<path class="st1" d="M784.9,93.9v19.5c0,2.3-1.6,4.4-4.2,5.5c-1.3,0.6-2.8,0.9-4.3,0.9c-0.9,0-1.8-0.1-2.7-0.3
					c0,0.2,0,23.5,0,23.5c0,3.5-3.8,6.4-8.5,6.4H741c-4.7,0-8.5-2.9-8.5-6.4v-6.9c-1.6,1.8-3.4,3.4-5.6,5
					c-8.2,6.2-18.3,9.3-29.9,9.3c-11.6,0-21.7-3.1-30-9.3c-3.5-2.7-6.3-5.6-8.4-8.7c-1.5,2.5-3.3,4.8-5.6,6.9
					c-3.8,3.4-8.6,6.2-14.3,8.1c-5.7,2-11.6,3-17.7,3c-11.9,0-22-3.1-30.3-9.1c-2.3-1.7-4.3-3.5-6-5.5v7.2c0,3.5-3.8,6.4-8.5,6.4
					H552c-0.7,0.3-1.5,0.4-2.3,0.5c-2.5,0.3-4.8,0.5-6.9,0.5c-12,0-22.1-3-30.2-9.1c-4.7-3.5-8-7.4-10-11.9c0,6.4,0,13.5,0,13.5
					c0,3.5-3.8,6.4-8.5,6.4H470c-4.7,0-8.5-2.9-8.5-6.4v-7.4c-1.7,2-3.7,3.8-6.1,5.6c-8.2,6.1-18.4,9.1-30.3,9.1c-6,0-12-1-17.7-3
					c-5.7-2-10.6-4.7-14.3-8.2c-2.2-2-4-4.2-5.5-6.5V143c0,3.5-3.8,6.4-8.5,6.4h-24.2c-1.4,0-2.8-0.3-4-0.7c-1.2,0.5-2.5,0.7-4,0.7
					h-24.2c-1.5,0-2.8-0.3-4-0.7c-1.2,0.5-2.5,0.7-4,0.7h-24.2c-4.7,0-8.5-2.9-8.5-6.4V128c-0.5,0.1-1,0.1-1.5,0.1h-11.9l6.8,6.1
					c1.5,1.3,2.2,3,1.9,4.8c-0.2,1.7-1.4,3.3-3.2,4.4c-7.9,4.7-16.9,7.1-26.7,7.1c-11.9,0-22-3-30.1-9.1c-3.4-2.5-6.1-5.3-8.1-8.3
					c-1.9,3.5-4.9,6.7-8.8,9.6c-7.7,5.7-17.2,8.6-28.3,8.6c-5.4,0-10.9-0.9-16.1-2.8c-3-1.1-4.9-3.3-4.9-5.8v-19.3
					c0-2.3,1.7-4.5,4.4-5.6c1.3-0.5,2.6-0.8,4.1-0.8c1.6,0,3.1,0.3,4.5,1c-0.3-0.4-0.5-0.8-0.9-1.2c-4.7-6.1-7-12.4-7-18.8
					c0-8,3.8-15,11.3-20.7s16.7-8.7,27.3-8.7c4.6,0,9.1,0.6,13.4,1.7c3.4,0.9,5.7,3.3,5.7,6v19c0,2.1-1.3,4-3.6,5.2
					c-1.5,0.8-3.2,1.2-4.9,1.2c-0.8,0-1.6-0.1-2.4-0.3c0.1,0.2,0.3,0.4,0.5,0.7l2,2.6c0.7,1,1.4,1.9,2,2.9c2-4.2,5.3-8,9.8-11.3
					c8.2-6.1,18.3-9.2,30.2-9.2c11.6,0,21.6,3,29.5,9.1c3,2.2,5.3,4.6,7.2,7.2c1.6-3.1,4-5.9,7.3-8.5c6.5-5.1,14.5-7.7,23.8-7.7
					c7.1,0,13.6,1.6,19.5,4.8c6.1-3.2,12.4-4.8,18.8-4.8c10.5,0,19.5,3.1,25.9,9c1.3,1.2,2.5,2.5,3.5,3.9V76.5
					c0-3.5,3.8-6.4,8.5-6.4h24.2c4.7,0,8.5,2.9,8.5,6.4v10.6c0.6,0,1.2-0.1,1.7-0.1c11.4,0,21.3,3.2,29.4,9.3
					c3.5,2.6,6.2,5.5,8.1,8.6c1.6-3.7,4.1-6.9,7.5-9.7c6.8-5.5,15.7-8.3,26.6-8.3c2.4,0,5.2,0.2,8.7,0.6c4.1,0.5,7.2,3.2,7.2,6.3
					v1.5c7.9-5.6,17.6-8.4,28.7-8.4c12.8,0,23.1,3,30.7,8.8c3.8,2.9,6.6,6.3,8.6,10.1c2-3.5,5-6.7,8.7-9.6
					c8.2-6.3,18.1-9.4,29.3-9.4c0.5,0,1.1,0,1.7,0.1V76.5c0-3.5,3.8-6.4,8.5-6.4h24.2c4.7,0,8.5,2.9,8.5,6.4v23.3
					c1.3-1.3,2.8-2.5,4.3-3.7c8.3-6,18.5-9.1,30.5-9.1c11.4,0,21.4,3.1,29.5,9.3c3.3,2.5,6,5.3,7.9,8.2c1.7-3.5,4.1-6.6,7.3-9.2
					c6.8-5.5,15.7-8.3,26.6-8.3c2.4,0,5.2,0.2,8.7,0.6C781.8,88.1,784.9,90.8,784.9,93.9z"/>
				<path class="st1" d="M123.8,76.5V143c0,3.5-3.8,6.4-8.5,6.4H91.2c-2.7,0-5.1-0.9-6.6-2.4c-1.6,1.5-4,2.4-6.7,2.4H57.3
					c-11.8,0-21.2-2.3-27.9-6.9c-7-4.7-10.5-11.5-10.5-19.9V96.5c0-8.1,3.3-14.7,9.9-19.4c6.5-4.7,15.3-7,26.4-7h22.8
					c2.7,0,5.1,0.9,6.7,2.4c1.5-1.5,3.9-2.4,6.6-2.4h24.2C120,70.1,123.8,72.9,123.8,76.5z"/>
			</g>
			<g>
				<g>
					<path class="st2" d="M354.1,93.4c-6.3,0-12.7,2.3-19,6.8c-5.7-4.6-12.1-6.8-19.3-6.8c-6.9,0-12.8,1.9-17.7,5.7
						c-4.9,3.8-7.3,8.5-7.3,13.9v30H315v-26.2c0-3.6,1.3-5.4,4-5.4c1.5,0,2.5,0.4,3.1,1.2c0.6,0.8,0.9,2.2,0.9,4.2V143h24.2v-26.2
						c0-3.6,1.4-5.4,4.1-5.4c1.5,0,2.5,0.4,3,1.2c0.6,0.8,0.8,2.2,0.8,4.2V143h24.2v-27.9c0-6.6-1.9-11.6-5.8-15.1
						C368.6,95.6,362.2,93.4,354.1,93.4z M271.5,100.5c-6.4-4.8-14.2-7.2-23.6-7.2c-9.6,0-17.6,2.5-24.2,7.4
						c-6.6,4.9-9.9,10.9-9.9,18c0,7.2,3.3,13.2,9.8,18c6.5,4.8,14.5,7.3,24.1,7.3c7.8,0,15-1.9,21.4-5.7l-13.8-12.5
						c-2.2,1.8-4.6,2.7-7,2.7c-3,0-5.4-1-7.2-2.9c-1.8-2-2.7-4.5-2.7-7.7c0-3,0.9-5.5,2.8-7.4c1.9-1.9,4.4-2.9,7.4-2.9
						c4.5,0,7.2,1.8,8.1,5.4h-12.3c-0.8,1.6-1.2,3.2-1.2,4.8c0,1.2,0.3,2.5,0.8,3.9h36.7c0.2-1.6,0.3-2.7,0.3-3.4
						C281,111.2,277.8,105.3,271.5,100.5z M174,81.6c-5.9,4.5-8.9,9.9-8.9,16.2c0,5.2,2,10.4,5.9,15.6c2.5,3.3,3.7,5.4,3.7,6.4
						c0,1.5-0.8,2.7-2.3,3.7c-1.5,1-3.4,1.5-5.7,1.5c-1.9,0-4.2-0.6-6.7-1.8v19.3c4.1,1.5,8.3,2.2,12.5,2.2c8.8,0,16.2-2.2,22.3-6.7
						c6.1-4.5,9.2-10,9.2-16.4c0-4.4-1.8-9-5.4-13.8l-2-2.6c-1.6-2-2.3-3.7-2.3-5.1c0-1.6,0.7-2.9,2.1-4c1.4-1.1,3.1-1.7,5.1-1.7
						c1,0,2.5,0.2,4.4,0.7v-19c-3.5-0.9-7-1.4-10.7-1.4C187,74.8,179.9,77.1,174,81.6z M449.7,100.8c-6.5-4.9-14.3-7.4-23.4-7.4
						c-1.5,0-3.6,0.1-6.5,0.3v20.1c2.3-1.2,4.3-1.8,6.1-1.8c2.5,0,4.6,0.7,6.3,2c1.7,1.3,2.6,3,2.6,5c0,1.9-0.9,3.6-2.7,4.9
						c-1.8,1.4-4.1,2-6.7,2c-6.2,0-9.2-3.2-9.2-9.7V76.4H392V117c0,7.4,2.6,13.5,7.8,18.2c3,2.7,6.8,4.8,11.4,6.4
						c4.6,1.6,9.3,2.4,14.1,2.4c9.6,0,17.7-2.4,24.3-7.3c6.6-4.9,9.9-10.9,9.9-18C459.4,111.7,456.2,105.8,449.7,100.8z M34.6,81.7
						c-4.8,3.5-7.3,8.5-7.3,14.8v26.1c0,6.6,2.6,11.6,7.7,15.1c5.1,3.5,12.5,5.2,22.2,5.2h20.6v-19H60.3c-3.1,0-5.1-0.2-6.1-0.7
						c-1-0.4-1.5-1.4-1.5-2.8c0-1.2,0.5-2.1,1.5-2.6c1-0.5,2.6-0.8,4.9-0.8h17.1v-14.8H61.8c-2.8,0-4.7-0.3-5.8-0.8
						c-1.1-0.5-1.6-1.4-1.6-2.7c0-2.2,2.3-3.3,6.8-3.3h16.7V76.4H55.1C46.3,76.4,39.5,78.2,34.6,81.7z M91.2,143h24.2V76.4H91.2V143
						z M721.1,100.8c-6.5-5-14.4-7.4-23.5-7.4c-9.7,0-17.9,2.4-24.6,7.3c-6.6,4.9-10,10.9-10,18c0,7,3.3,13,10,17.9
						c6.6,5,14.6,7.4,24,7.4c9.4,0,17.3-2.5,24-7.4c6.6-4.9,9.9-10.9,9.9-18C730.9,111.7,727.6,105.8,721.1,100.8z M703.6,123.9
						c-1.8,1.4-4,2.1-6.6,2.1c-2.5,0-4.7-0.7-6.6-2.1c-1.8-1.4-2.7-3.2-2.7-5.2c0-2.1,0.9-3.8,2.7-5.2c1.8-1.4,4-2.1,6.6-2.1
						c2.6,0,4.8,0.7,6.7,2.1c1.8,1.4,2.7,3.1,2.7,5.2C706.3,120.7,705.4,122.4,703.6,123.9z M477.7,99.6c-5.1,4.2-7.6,9.8-7.6,16.8
						V143h24.2V120c0-5.1,2.2-7.6,6.6-7.6c1.4,0,2.9,0.4,4.6,1.1V93.9c-3-0.4-5.5-0.5-7.4-0.5C489.6,93.4,482.8,95.5,477.7,99.6z
						 M769,93.4c-8.5,0-15.3,2.1-20.4,6.3c-5.1,4.2-7.6,9.8-7.6,16.8V143h24.2V120c0-5.1,2.2-7.6,6.6-7.6c1.4,0,2.9,0.4,4.6,1.1
						V93.9C773.3,93.6,770.9,93.4,769,93.4z M567.3,100.3c-6-4.6-14.2-6.9-24.7-6.9c-9.4,0-17.3,2.5-23.8,7.4
						c-6.5,4.9-9.8,10.9-9.8,18c0,7.3,3.2,13.3,9.7,18.1c6.5,4.8,14.6,7.2,24.2,7.2c1.6,0,3.4-0.1,5.4-0.4v-18.9
						c-1.8,0.8-3.8,1.3-5.9,1.3c-2.6,0-4.7-0.7-6.4-2c-1.7-1.3-2.5-3-2.5-5c0-1.9,0.9-3.6,2.8-5c1.9-1.4,4-2.1,6.6-2.1
						c2.8,0,5,0.8,6.7,2.3c1.7,1.5,2.5,3.6,2.5,6.1V143h24.2v-23.9C576.3,111.2,573.3,104.9,567.3,100.3z M630.1,116.3
						c0,6.5-3.1,9.7-9.3,9.7c-2.6,0-4.8-0.7-6.7-2c-1.9-1.3-2.8-3-2.8-4.9c0-2,0.9-3.6,2.7-5c1.8-1.4,3.9-2.1,6.4-2.1
						c2,0,4,0.6,5.9,1.8V93.7c-2.9-0.2-5-0.3-6.5-0.3c-9,0-16.7,2.5-23.3,7.5c-6.6,5-9.8,10.9-9.8,17.8c0,7.1,3.3,13.1,9.9,18
						c6.6,4.9,14.7,7.3,24.3,7.3c4.8,0,9.5-0.8,14.1-2.4c4.6-1.6,8.4-3.7,11.4-6.4c5.2-4.7,7.8-10.7,7.8-18.2V76.4h-24.2V116.3z"/>
				</g>
			</g>
		</g>
		<g>
			<path class="st0" d="M498,176.5v11.1h-12.8c-1.7,0-3,0.2-3.7,0.6c-0.7,0.4-1.1,1.1-1.1,2c0,1.1,0.4,1.7,1.1,2.1
				c0.7,0.3,2.2,0.5,4.5,0.5h13.1v14.3h-15.4c-7.2,0-12.7-1.3-16.6-3.9c-3.8-2.6-5.7-6.4-5.7-11.4v-19.6c0-4.8,1.8-8.5,5.4-11.1
				c3.6-2.6,8.7-4,15.2-4h17v14.4h-12.5c-3.4,0-5.1,0.8-5.1,2.5c0,1,0.4,1.7,1.2,2c0.8,0.4,2.2,0.6,4.3,0.6H498z"/>
			<path class="st0" d="M538.7,171v14.4c-2.5,0-4.3,0.4-5.2,1.1c-0.9,0.7-1.5,2.1-1.8,4.3c-0.8,7.1-4.4,12-10.8,15
				c-3.4,1.5-8.2,2.3-14.3,2.3h-2.5v-14.5h0.8c2.9,0,5-0.5,6.2-1.4c1.2-0.9,2-2.5,2.1-4.8c0.3-3.7,0.7-6.4,1.4-7.9
				c0.7-1.5,2-3,4-4.5c3.5-2.6,8.4-3.9,14.7-3.9H538.7z"/>
			<path class="st0" d="M573.6,190.3l17.9-0.5c-0.5,5.3-3.1,9.6-7.8,13c-4.7,3.4-10.3,5.1-17,5.1c-7.1,0-13-1.9-17.9-5.6
				c-4.9-3.7-7.3-8.3-7.3-13.7c0-5.2,2.5-9.6,7.4-13.2s10.8-5.5,17.7-5.5c6,0,11.3,1.4,15.9,4.3c4.6,2.9,7.4,6.6,8.6,11l-18.2,0.5
				c-1.6-1.6-3.6-2.3-6-2.3c-2.1,0-3.7,0.5-5.1,1.5c-1.3,1-2,2.3-2,3.9c0,1.6,0.7,2.9,2.1,4c1.4,1.1,3.1,1.6,5.2,1.6
				C570.1,194.3,572.3,193,573.6,190.3z"/>
			<path class="st0" d="M621.6,169.8c6.8,0,12.6,1.9,17.5,5.6c4.9,3.7,7.3,8.2,7.3,13.4c0,5.3-2.5,9.8-7.4,13.5
				c-4.9,3.7-10.9,5.6-17.8,5.6c-7,0-12.9-1.9-17.9-5.6c-4.9-3.7-7.4-8.2-7.4-13.5c0-5.4,2.5-9.9,7.4-13.5
				C608.2,171.6,614.3,169.8,621.6,169.8z M621.1,183.3c-1.9,0-3.6,0.5-4.9,1.6c-1.3,1.1-2,2.4-2,3.9c0,1.5,0.7,2.8,2,3.9
				c1.4,1.1,3,1.6,4.9,1.6c1.9,0,3.6-0.5,4.9-1.6c1.4-1.1,2-2.4,2-3.9c0-1.5-0.7-2.8-2-3.9C624.7,183.8,623.1,183.3,621.1,183.3z"/>
			<path class="st0" d="M671.4,157v50h-18v-50H671.4z"/>
			<path class="st0" d="M708.1,193.4v14.2c-1.5,0.2-2.8,0.3-4,0.3c-7.2,0-13.2-1.8-18.1-5.4c-4.8-3.6-7.2-8.2-7.2-13.6
				c0-5.3,2.4-9.8,7.3-13.5c4.9-3.7,10.8-5.5,17.7-5.5c7.8,0,13.9,1.7,18.4,5.2c4.5,3.5,6.7,8.2,6.7,14.2v17.9h-18v-16.9
				c0-1.9-0.6-3.5-1.9-4.6c-1.2-1.1-2.9-1.7-5-1.7c-1.9,0-3.5,0.5-4.9,1.6c-1.4,1.1-2.1,2.3-2.1,3.7c0,1.5,0.6,2.8,1.9,3.7
				c1.2,1,2.8,1.5,4.8,1.5C705.3,194.3,706.8,194,708.1,193.4z"/>
			<path class="st0" d="M765.3,170.2v14.7c-1.3-0.5-2.4-0.8-3.4-0.8c-3.3,0-4.9,1.9-4.9,5.7v17.3h-18v-20c0-5.3,1.9-9.5,5.7-12.6
				c3.8-3.1,8.8-4.7,15.2-4.7C761.2,169.8,763,169.9,765.3,170.2z"/>
		</g>
	</g>
</g>
</svg>
