<?xml version="1.0" encoding="utf-8"?>
<!-- Generator: Adobe Illustrator 27.2.0, SVG Export Plug-In . SVG Version: 6.00 Build 0)  -->
<svg version="1.1" id="Capa_1" xmlns="http://www.w3.org/2000/svg" xmlns:xlink="http://www.w3.org/1999/xlink" x="0px" y="0px"
	 viewBox="0 0 199 40" style="enable-background:new 0 0 199 40;" xml:space="preserve">
<style type="text/css">
	.st0{fill:#FFFFFF;}
	.st1{fill:#FF8A00;}
	.st2{fill:#FF0310;}
</style>
<g>
	<g>
		<g>
			<g>
				<path class="st0" d="M197,6.5v5c0,0.6-0.4,1.1-1.1,1.4c-0.3,0.1-0.7,0.2-1.1,0.2c-0.2,0-0.5,0-0.7-0.1c0,0,0,6,0,6
					c0,0.9-1,1.6-2.2,1.6h-6.2c-1.2,0-2.2-0.7-2.2-1.6v-1.8c-0.4,0.4-0.9,0.9-1.4,1.3c-2.1,1.6-4.7,2.4-7.6,2.4
					c-3,0-5.5-0.8-7.6-2.4c-0.9-0.7-1.6-1.4-2.1-2.2c-0.4,0.6-0.8,1.2-1.4,1.7c-1,0.9-2.2,1.6-3.7,2.1c-1.5,0.5-3,0.8-4.5,0.8
					c-3,0-5.6-0.8-7.7-2.3c-0.6-0.4-1.1-0.9-1.5-1.4V19c0,0.9-1,1.6-2.2,1.6h-6.2c-0.2,0.1-0.4,0.1-0.6,0.1
					c-0.6,0.1-1.2,0.1-1.7,0.1c-3,0-5.6-0.8-7.7-2.3c-1.2-0.9-2-1.9-2.5-3c0,1.6,0,3.4,0,3.4c0,0.9-1,1.6-2.2,1.6h-6.2
					c-1.2,0-2.2-0.7-2.2-1.6v-1.9c-0.4,0.5-0.9,1-1.6,1.4c-2.1,1.5-4.7,2.3-7.7,2.3c-1.5,0-3.1-0.3-4.5-0.8
					c-1.5-0.5-2.7-1.2-3.7-2.1c-0.6-0.5-1-1.1-1.4-1.7V19c0,0.9-1,1.6-2.2,1.6h-6.2c-0.4,0-0.7-0.1-1-0.2c-0.3,0.1-0.6,0.2-1,0.2
					h-6.2c-0.4,0-0.7-0.1-1-0.2c-0.3,0.1-0.6,0.2-1,0.2H71c-1.2,0-2.2-0.7-2.2-1.6v-3.8c-0.1,0-0.3,0-0.4,0h-3l1.7,1.6
					c0.4,0.3,0.6,0.8,0.5,1.2s-0.4,0.8-0.8,1.1c-2,1.2-4.3,1.8-6.8,1.8c-3,0-5.6-0.8-7.7-2.3c-0.9-0.6-1.6-1.3-2.1-2.1
					c-0.5,0.9-1.2,1.7-2.2,2.4c-2,1.4-4.4,2.2-7.2,2.2c-1.4,0-2.8-0.2-4.1-0.7c-0.8-0.3-1.2-0.8-1.2-1.5v-4.9c0-0.6,0.4-1.1,1.1-1.4
					c0.3-0.1,0.7-0.2,1-0.2c0.4,0,0.8,0.1,1.1,0.2c-0.1-0.1-0.1-0.2-0.2-0.3c-1.2-1.6-1.8-3.2-1.8-4.8c0-2,1-3.8,2.9-5.3
					c1.9-1.5,4.3-2.2,7-2.2c1.2,0,2.3,0.1,3.4,0.4c0.9,0.2,1.5,0.8,1.5,1.5v4.8c0,0.5-0.3,1-0.9,1.3c-0.4,0.2-0.8,0.3-1.3,0.3
					c-0.2,0-0.4,0-0.6-0.1c0,0.1,0.1,0.1,0.1,0.2l0.5,0.7c0.2,0.2,0.4,0.5,0.5,0.7c0.5-1.1,1.4-2,2.5-2.9C54.4,5.5,57,4.7,60,4.7
					c3,0,5.5,0.8,7.5,2.3c0.8,0.6,1.4,1.2,1.8,1.8c0.4-0.8,1-1.5,1.9-2.2c1.7-1.3,3.7-2,6.1-2c1.8,0,3.5,0.4,5,1.2
					c1.6-0.8,3.2-1.2,4.8-1.2c2.7,0,5,0.8,6.6,2.3c0.3,0.3,0.6,0.6,0.9,1v-6c0-0.9,1-1.6,2.2-1.6h6.2c1.2,0,2.2,0.7,2.2,1.6v2.7
					c0.2,0,0.3,0,0.4,0c2.9,0,5.4,0.8,7.5,2.4c0.9,0.7,1.6,1.4,2.1,2.2c0.4-0.9,1.1-1.8,1.9-2.5c1.7-1.4,4-2.1,6.8-2.1
					c0.6,0,1.3,0,2.2,0.2c1.1,0.1,1.8,0.8,1.8,1.6v0.4c2-1.4,4.5-2.1,7.3-2.1c3.3,0,5.9,0.8,7.8,2.2c1,0.7,1.7,1.6,2.2,2.6
					c0.5-0.9,1.3-1.7,2.2-2.4c2.1-1.6,4.6-2.4,7.5-2.4c0.1,0,0.3,0,0.4,0V2.1c0-0.9,1-1.6,2.2-1.6h6.2c1.2,0,2.2,0.7,2.2,1.6V8
					c0.3-0.3,0.7-0.6,1.1-0.9c2.1-1.5,4.7-2.3,7.8-2.3c2.9,0,5.5,0.8,7.5,2.4c0.8,0.6,1.5,1.3,2,2.1c0.4-0.9,1-1.7,1.9-2.3
					c1.7-1.4,4-2.1,6.8-2.1c0.6,0,1.3,0,2.2,0.2C196.2,5,197,5.7,197,6.5z"/>
				<path class="st0" d="M28.4,2.1V19c0,0.9-1,1.6-2.2,1.6h-6.2c-0.7,0-1.3-0.2-1.7-0.6c-0.4,0.4-1,0.6-1.7,0.6h-5.3
					c-3,0-5.4-0.6-7.1-1.8c-1.8-1.2-2.7-2.9-2.7-5.1V7.2c0-2.1,0.8-3.7,2.5-4.9C5.8,1,8,0.4,10.9,0.4h5.8c0.7,0,1.3,0.2,1.7,0.6
					c0.4-0.4,1-0.6,1.7-0.6h6.2C27.4,0.4,28.4,1.2,28.4,2.1z"/>
			</g>
			<g>
				<g>
					<path class="st1" d="M87.1,6.4c-1.6,0-3.2,0.6-4.8,1.7c-1.5-1.2-3.1-1.7-4.9-1.7c-1.8,0-3.3,0.5-4.5,1.5
						c-1.2,1-1.9,2.2-1.9,3.5V19h6.2v-6.7c0-0.9,0.3-1.4,1-1.4c0.4,0,0.6,0.1,0.8,0.3c0.1,0.2,0.2,0.6,0.2,1.1V19h6.2v-6.7
						c0-0.9,0.3-1.4,1-1.4c0.4,0,0.6,0.1,0.8,0.3c0.1,0.2,0.2,0.6,0.2,1.1V19h6.2v-7.1c0-1.7-0.5-3-1.5-3.8
						C90.8,6.9,89.2,6.4,87.1,6.4z M41.2,3.4c-1.5,1.2-2.3,2.5-2.3,4.1c0,1.3,0.5,2.6,1.5,4c0.6,0.8,0.9,1.4,0.9,1.6
						c0,0.4-0.2,0.7-0.6,0.9c-0.4,0.3-0.9,0.4-1.5,0.4c-0.5,0-1.1-0.2-1.7-0.5v4.9c1.1,0.4,2.1,0.6,3.2,0.6c2.2,0,4.1-0.6,5.7-1.7
						c1.6-1.1,2.3-2.5,2.3-4.2c0-1.1-0.5-2.3-1.4-3.5l-0.5-0.7c-0.4-0.5-0.6-1-0.6-1.3c0-0.4,0.2-0.7,0.5-1c0.4-0.3,0.8-0.4,1.3-0.4
						c0.3,0,0.6,0.1,1.1,0.2V2c-0.9-0.2-1.8-0.3-2.7-0.3C44.5,1.6,42.7,2.2,41.2,3.4z M66.1,8.2c-1.6-1.2-3.6-1.8-6-1.8
						c-2.4,0-4.5,0.6-6.2,1.9c-1.7,1.2-2.5,2.8-2.5,4.6c0,1.8,0.8,3.3,2.5,4.6c1.7,1.2,3.7,1.8,6.2,1.8c2,0,3.8-0.5,5.5-1.5
						l-3.5-3.2c-0.6,0.5-1.2,0.7-1.8,0.7c-0.8,0-1.4-0.2-1.8-0.7c-0.5-0.5-0.7-1.1-0.7-1.9c0-0.8,0.2-1.4,0.7-1.9
						c0.5-0.5,1.1-0.7,1.9-0.7c1.2,0,1.8,0.5,2.1,1.4h-3.1c-0.2,0.4-0.3,0.8-0.3,1.2c0,0.3,0.1,0.6,0.2,1h9.4c0-0.4,0.1-0.7,0.1-0.9
						C68.5,10.9,67.7,9.4,66.1,8.2z M20.1,19h6.2V2.1h-6.2V19z M5.6,3.4C4.4,4.3,3.8,5.5,3.8,7.2v6.6c0,1.7,0.7,3,2,3.9
						c1.3,0.9,3.2,1.3,5.7,1.3h5.3v-4.8h-4.5c-0.8,0-1.3-0.1-1.6-0.2c-0.3-0.1-0.4-0.3-0.4-0.7c0-0.3,0.1-0.5,0.4-0.7
						c0.2-0.1,0.7-0.2,1.3-0.2h4.4V8.6h-3.7c-0.7,0-1.2-0.1-1.5-0.2c-0.3-0.1-0.4-0.4-0.4-0.7c0-0.6,0.6-0.8,1.7-0.8h4.3V2.1h-5.8
						C8.6,2.1,6.9,2.5,5.6,3.4z M157.5,12.2c0,1.6-0.8,2.5-2.4,2.5c-0.7,0-1.2-0.2-1.7-0.5c-0.5-0.3-0.7-0.8-0.7-1.2
						c0-0.5,0.2-0.9,0.7-1.3c0.5-0.4,1-0.5,1.6-0.5c0.5,0,1,0.1,1.5,0.4V6.4c-0.7,0-1.3-0.1-1.6-0.1c-2.3,0-4.3,0.6-5.9,1.9
						s-2.5,2.8-2.5,4.5c0,1.8,0.8,3.3,2.5,4.6c1.7,1.2,3.7,1.9,6.2,1.9c1.2,0,2.4-0.2,3.6-0.6c1.2-0.4,2.1-1,2.9-1.6
						c1.3-1.2,2-2.7,2-4.6V2.1h-6.2V12.2z M111.5,8.3c-1.7-1.3-3.6-1.9-6-1.9c-0.4,0-0.9,0-1.6,0.1v5.1c0.6-0.3,1.1-0.4,1.6-0.4
						c0.6,0,1.2,0.2,1.6,0.5c0.4,0.3,0.7,0.8,0.7,1.3c0,0.5-0.2,0.9-0.7,1.2c-0.5,0.3-1,0.5-1.7,0.5c-1.6,0-2.4-0.8-2.4-2.5V2.1
						h-6.2v10.3c0,1.9,0.7,3.4,2,4.6c0.8,0.7,1.7,1.2,2.9,1.6c1.2,0.4,2.4,0.6,3.6,0.6c2.5,0,4.5-0.6,6.2-1.9
						c1.7-1.2,2.5-2.8,2.5-4.6C114,11,113.2,9.5,111.5,8.3z M180.7,8.2c-1.7-1.3-3.7-1.9-6-1.9c-2.5,0-4.6,0.6-6.3,1.9
						c-1.7,1.2-2.5,2.8-2.5,4.6c0,1.8,0.8,3.3,2.5,4.6c1.7,1.3,3.7,1.9,6.1,1.9c2.4,0,4.4-0.6,6.1-1.9c1.7-1.3,2.5-2.8,2.5-4.6
						C183.2,11,182.4,9.5,180.7,8.2z M176.3,14.1c-0.5,0.4-1,0.5-1.7,0.5c-0.6,0-1.2-0.2-1.7-0.5c-0.5-0.4-0.7-0.8-0.7-1.3
						c0-0.5,0.2-1,0.7-1.3c0.5-0.4,1-0.5,1.7-0.5c0.7,0,1.2,0.2,1.7,0.5c0.5,0.4,0.7,0.8,0.7,1.3C177,13.3,176.7,13.7,176.3,14.1z
						 M193,6.4c-2.2,0-3.9,0.5-5.2,1.6c-1.3,1.1-1.9,2.5-1.9,4.3V19h6.2v-5.9c0-1.3,0.6-1.9,1.7-1.9c0.4,0,0.7,0.1,1.2,0.3v-5
						C194.1,6.4,193.4,6.4,193,6.4z M118.6,7.9c-1.3,1.1-1.9,2.5-1.9,4.3V19h6.2v-5.9c0-1.3,0.6-1.9,1.7-1.9c0.4,0,0.7,0.1,1.2,0.3
						v-5c-0.8-0.1-1.4-0.1-1.9-0.1C121.7,6.4,119.9,6.9,118.6,7.9z M141.5,8.1c-1.5-1.2-3.6-1.8-6.3-1.8c-2.4,0-4.4,0.6-6.1,1.9
						c-1.7,1.2-2.5,2.8-2.5,4.6c0,1.8,0.8,3.4,2.5,4.6c1.6,1.2,3.7,1.8,6.2,1.8c0.4,0,0.9,0,1.4-0.1v-4.8c-0.5,0.2-1,0.3-1.5,0.3
						c-0.7,0-1.2-0.2-1.6-0.5c-0.4-0.3-0.6-0.8-0.6-1.3c0-0.5,0.2-0.9,0.7-1.3c0.5-0.4,1-0.5,1.7-0.5c0.7,0,1.3,0.2,1.7,0.6
						c0.4,0.4,0.6,0.9,0.6,1.6V19h6.2v-6.1C143.8,10.9,143,9.3,141.5,8.1z"/>
				</g>
			</g>
		</g>
		<g>
			<path class="st2" d="M116.1,28.7V32h-3.8c-0.5,0-0.9,0.1-1.1,0.2c-0.2,0.1-0.3,0.3-0.3,0.6c0,0.3,0.1,0.5,0.3,0.6
				c0.2,0.1,0.7,0.1,1.3,0.1h3.9v4.2h-4.5c-2.1,0-3.7-0.4-4.9-1.2c-1.1-0.8-1.7-1.9-1.7-3.3v-5.8c0-1.4,0.5-2.5,1.6-3.3
				c1.1-0.8,2.6-1.2,4.5-1.2h5v4.2h-3.7c-1,0-1.5,0.2-1.5,0.7c0,0.3,0.1,0.5,0.4,0.6c0.2,0.1,0.7,0.2,1.3,0.2H116.1z"/>
			<path class="st2" d="M128,27.1v4.2c-0.7,0-1.3,0.1-1.5,0.3c-0.3,0.2-0.5,0.6-0.5,1.3c-0.2,2.1-1.3,3.5-3.2,4.4
				c-1,0.4-2.4,0.7-4.2,0.7h-0.7v-4.3h0.2c0.8,0,1.5-0.1,1.8-0.4c0.4-0.3,0.6-0.7,0.6-1.4c0.1-1.1,0.2-1.9,0.4-2.3
				c0.2-0.4,0.6-0.9,1.2-1.3c1-0.8,2.5-1.2,4.3-1.2H128z"/>
			<path class="st2" d="M138.3,32.8l5.3-0.2c-0.2,1.6-0.9,2.8-2.3,3.8c-1.4,1-3,1.5-5,1.5c-2.1,0-3.8-0.6-5.3-1.6
				c-1.4-1.1-2.1-2.4-2.1-4c0-1.5,0.7-2.8,2.2-3.9c1.4-1.1,3.2-1.6,5.2-1.6c1.8,0,3.3,0.4,4.7,1.3c1.3,0.8,2.2,1.9,2.5,3.2l-5.4,0.2
				c-0.5-0.5-1-0.7-1.8-0.7c-0.6,0-1.1,0.2-1.5,0.5c-0.4,0.3-0.6,0.7-0.6,1.1c0,0.5,0.2,0.9,0.6,1.2c0.4,0.3,0.9,0.5,1.5,0.5
				C137.3,34,137.9,33.6,138.3,32.8z"/>
			<path class="st2" d="M152.4,26.7c2,0,3.7,0.5,5.1,1.6c1.4,1.1,2.1,2.4,2.1,3.9c0,1.6-0.7,2.9-2.2,4c-1.4,1.1-3.2,1.6-5.2,1.6
				c-2,0-3.8-0.5-5.3-1.6c-1.5-1.1-2.2-2.4-2.2-4c0-1.6,0.7-2.9,2.2-4C148.5,27.3,150.3,26.7,152.4,26.7z M152.3,30.7
				c-0.6,0-1,0.2-1.4,0.5c-0.4,0.3-0.6,0.7-0.6,1.1c0,0.4,0.2,0.8,0.6,1.1c0.4,0.3,0.9,0.5,1.4,0.5c0.6,0,1-0.2,1.5-0.5
				c0.4-0.3,0.6-0.7,0.6-1.1c0-0.5-0.2-0.8-0.6-1.1C153.3,30.9,152.8,30.7,152.3,30.7z"/>
			<path class="st2" d="M167,23v14.7h-5.3V23H167z"/>
			<path class="st2" d="M177.8,33.7v4.2c-0.4,0.1-0.8,0.1-1.2,0.1c-2.1,0-3.9-0.5-5.3-1.6c-1.4-1.1-2.1-2.4-2.1-4
				c0-1.6,0.7-2.9,2.1-4c1.4-1.1,3.2-1.6,5.2-1.6c2.3,0,4.1,0.5,5.4,1.5c1.3,1,2,2.4,2,4.2v5.3h-5.3v-5c0-0.6-0.2-1-0.5-1.4
				c-0.4-0.3-0.9-0.5-1.5-0.5c-0.6,0-1,0.2-1.4,0.5c-0.4,0.3-0.6,0.7-0.6,1.1c0,0.4,0.2,0.8,0.6,1.1c0.4,0.3,0.8,0.4,1.4,0.4
				C177,34,177.4,33.9,177.8,33.7z"/>
			<path class="st2" d="M194.6,26.9v4.3c-0.4-0.2-0.7-0.2-1-0.2c-1,0-1.4,0.6-1.4,1.7v5.1h-5.3v-5.9c0-1.6,0.6-2.8,1.7-3.7
				c1.1-0.9,2.6-1.4,4.5-1.4C193.4,26.7,194,26.8,194.6,26.9z"/>
		</g>
	</g>
</g>
</svg>
